<svg width="64" height="64" viewBox="0 0 64 64" fill="none" xmlns="http://www.w3.org/2000/svg">
  <rect x="3" y="3" width="58" height="58" rx="15" fill="#2D4CFF" stroke="#15130E" stroke-width="3"/>
  <g transform="translate(8 14) scale(0.92)">
    <path d="M5 3 H15 C20.5 3 25 7.5 25 13 C25 18.5 20.5 23 15 23 H11 V34 H5 Z M11 9 H15 C17.2 9 19 10.8 19 13 C19 15.2 17.2 17 15 17 H11 Z" fill="#C6F24E" fill-rule="evenodd"/>
  </g>
  <g transform="translate(24 14) scale(0.92)">
    <path d="M5 3 H15 C20.5 3 25 7.5 25 13 C25 18.5 20.5 23 15 23 H11 V34 H5 Z M11 9 H15 C17.2 9 19 10.8 19 13 C19 15.2 17.2 17 15 17 H11 Z" fill="#FBF7EC" fill-rule="evenodd" stroke="#15130E" stroke-width="1.5"/>
  </g>
</svg>
